#!OML:ASF E:/inclinewalkrobotboard/Project1/Captureday1/Session1/subject1.ASF
:FULLY-SPECIFIED
:DEGREES
226
root 0 0 0 -2.1238583171437604 -5.985397727748382 -6.963510773465421
lowerback 11.766895513160092 2.446882349019413 6.342066867430831
upperback 1.5607483995204732 4.084739129912561 1.8242570240025358
thorax -4.754399655294101 1.8903046917958635 -2.229301999879341
lowerneck -16.99854597567587 -3.5522028369096743 -2.1665544330528776
upperneck 21.50766525292693 -4.616680744511772 0.9083469520600578
head 9.658237963524453 -2.2093499949642696 0.04992103367383721
rclavicle -3.535465256116571E-15 1.5891910827460578E-15
rhumerus -28.736649994624145 -13.149709596503392 -82.55877064942489
rradius 28.478117011792705
rwrist 8.255977196131003
rhand -19.890213578815228 29.929735174754043
rfingers 7.125020000000009
rthumb 6.4668980365828475 -0.04145953331413921
lclavicle -7.303255087693807E-15 8.673971058544188E-16
lhumerus -30.38892007467779 0.05815411931722869 86.01134062121525
lradius 24.45380621071677
lwrist 5.325514704678454
lhand -27.992423961596515 26.58217445106097
lfingers 7.125020000000046
lthumb -1.383778749879692 56.62706245427294
rfemur 0.20479850346874606 8.0487361477907 34.68649436768671
rtibia 29.978417449399494
rfoot -18.49687310427321 -6.399919231752612
rtoes 0.6415910626196422
lfemur -29.175010343164864 -2.309885049294678 -11.71538090891883
ltibia 27.00193424676727
lfoot -7.704308705732036 4.411035082369882
ltoes -6.6373863052252595
227
root 0 0 0 -2.090443422926694 -5.971032689781358 -6.590199230942371
lowerback 11.776177219875034 2.524403443143493 6.147022621179889
upperback 1.6203674069388327 4.131917998781423 1.5771426420319932
thorax -4.708398317699649 1.9159364325224884 -2.3832215526628397
lowerneck -16.86994585644303 -3.5698067297935365 -2.2097831233206273
upperneck 21.177181741464075 -4.683741553686232 1.0216351774085846
head 9.47850447795507 -2.2308098287414655 0.09179421003463784
rclavicle -3.4456070891504794E-15 1.687108517412686E-15
rhumerus -28.69323616340841 -13.723877052381926 -82.60487089576372
rradius 28.85383527792843
rwrist 9.030841387019866
rhand -20.18632099690204 29.758413922508545
rfingers 7.125020000000002
rthumb 6.181489763626286 -0.26646818112249093
lclavicle -7.447065928880211E-15 9.08969223224155E-16
lhumerus -30.603897053343218 0.5564693295256636 85.53991625065866
lradius 24.02615998318207
lwrist 5.018140764525965
lhand -28.015433855238395 26.717243864549992
lfingers 7.125020000000046
lthumb -1.4094730841406626 56.75497129973381
rfemur 0.5069140346084975 7.4688644677156315 32.46123485211946
rtibia 28.559991765297006
rfoot -16.897762088478665 -5.814416174059155
rtoes -0.8052508436297405
lfemur -26.78371213148825 -3.1703327581208995 -13.590302629346288
ltibia 23.68287499003519
lfoot -8.284192744660382 4.38207228981752
ltoes -2.4814937873162854
228
root 0 0 0 -2.1578048542163466 -5.915913844264056 -6.170482372975692
lowerback 11.763009641728429 2.581612794931307 5.876853443633743
upperback 1.7003176514044236 4.1493645519547 1.3576165002395288
thorax -4.624989600891603 1.9284043266984003 -2.458240852551044
lowerneck -16.729059904353335 -3.599000758838502 -2.304317918474494
upperneck 20.695982299535018 -4.758761633244522 1.2123424130086649
head 9.243503494733407 -2.255867052257652 0.16712679501457461
rclavicle -2.9833423101724525E-15 1.687472190003229E-15
rhumerus -28.918959293842015 -14.70212277256967 -82.61986827355737
rradius 28.57731246148871
rwrist 9.997070353014891
rhand -20.320573709313976 29.399557408091667
rfingers 7.1250199999999975
rthumb 6.051827329382821 -0.6569352878375767
lclavicle -7.125909073146796E-15 9.037525910007307E-16
lhumerus -31.026778855963485 1.2113417837589515 84.9807507777577
lradius 23.537933491321382
lwrist 4.632915708858354
lhand -27.980892543926643 26.809309764811314
lfingers 7.125020000000046
lthumb -1.377727421251425 56.83511140611572
rfemur 0.7220337203293141 6.684829455080033 29.666418662970937
rtibia 27.484136505069937
rfoot -14.39752098384378 -4.897021566771371
rtoes -1.4032572070241438
lfemur -24.631223242449817 -3.621548579890181 -14.87817962778999
ltibia 22.230559674100537
lfoot -8.635269339083912 4.08507653068553
ltoes -0.3706504027552562
229
root 0 0 0 -2.3035897602849267 -5.788292921292918 -5.585331941383203
lowerback 11.712514443476284 2.6143059934646633 5.41264952806441
upperback 1.8216075756832408 4.117533335451415 1.1489792198521065
thorax -4.4730171443154605 1.9207426957969451 -2.403143912391568
lowerneck -16.57385343978875 -3.6377859782276194 -2.44462747588606
upperneck 20.45754991782608 -4.842536193944228 1.4493852111723173
head 9.091850694680542 -2.282498341354142 0.2606869297582153
rclavicle -2.5139660658392857E-15 1.6837366765779701E-15
rhumerus -29.189355655488484 -15.743054123971088 -82.55429624623461
rradius 28.07689419664948
rwrist 10.933908584570002
rhand -20.330440978031902 28.96245499495287
rfingers 7.125019999999995
rthumb 6.042066744378307 -1.1057189078773249
lclavicle -6.648405501106812E-15 9.599031506868017E-16
lhumerus -31.719640913701483 2.062284232408317 84.32827879269884
lradius 22.94414923587529
lwrist 4.14857078533578
lhand -27.878869627859192 26.87749051751381
lfingers 7.125020000000047
lthumb -1.2811706731244996 56.88430031800499
rfemur 0.5949761517302878 5.383096636809272 26.51504254543672
rtibia 31.117109686925822
rfoot -9.32174296593577 -3.4944206017127413
rtoes 0.1245983583970598
lfemur -22.65978956193322 -3.8162413352779394 -15.758908399068435
ltibia 21.71725354523611
lfoot -8.95966780735644 3.7554345459383307
ltoes 0.17174955610673948
230
root 0 0 0 -2.664660104689208 -5.514620437261007 -4.421918583587795
lowerback 11.78068290890077 2.5539393331099336 4.332273816505691
upperback 2.079873574598639 3.8993124501322702 0.916165015047611
thorax -4.240026548499594 1.8340026538969554 -1.99798056394151
lowerneck -16.352824290036455 -3.68434703147535 -2.6216382895092294
upperneck 20.70799184259177 -4.922598584161149 1.687050156673833
head 9.107629776373319 -2.305446068481377 0.3543610158624187
rclavicle -2.2562487187175857E-15 1.709716834223001E-15
rhumerus -29.59684917070703 -16.935204680895318 -82.37604866575896
rradius 27.334884344513085
rwrist 11.735266277191712
rhand -20.24844313945901 28.44305293480329
rfingers 7.125019999999995
rthumb 6.121464495674304 -1.6250519607470366
lclavicle -6.277287839741376E-15 1.013963694592315E-15
lhumerus -32.631505213551335 3.0690796255798167 83.67797833184649
lradius 22.22288644429934
lwrist 3.5846527799073193
lhand -27.72263284784689 26.94153739538391
lfingers 7.12502000000005
lthumb -1.1333798956074492 56.92305501653782
rfemur -1.4408152005044856 3.148223110998548 22.82987501841789
rtibia 43.24582028337755
rfoot -0.27186867794824865 -1.6702592138493393
rtoes 5.102619070079709
lfemur -19.91714330502323 -3.8823077125245615 -16.88553752273
ltibia 21.453218765099052
lfoot -9.288919034720795 3.1629166597945546
ltoes 0.1256826836047793
231
root 0 0 0 -4.182621996811438 -4.958167357458738 -1.0659025176369923
lowerback 13.394186101584854 1.9150999031175617 0.8991895750852938
upperback 2.714436137267128 2.6526013298739946 0.4786195054348936
thorax -4.510030028450652 1.2872117111178554 -0.3423677580048681
lowerneck -15.840420760336713 -3.6886536538771084 -2.579609299009557
upperneck 17.638764592509155 -4.810843710743197 1.7272275845863627
head 8.061648080661966 -2.285296301738019 0.4050386862555581
rclavicle -2.6991667185874596E-15 1.9061288589434915E-15
rhumerus -30.236726263412624 -18.35557411849315 -82.11573158459441
rradius 26.299916519728136
rwrist 12.315176097405132
rhand -20.12079114220834 27.85943465376274
rfingers 7.125019999999996
rthumb 6.245804085101892 -2.2022983430963805
lclavicle -6.690779386730113E-15 1.1888925031125103E-15
lhumerus -32.80180152356709 3.3484711562379776 83.44396102568093
lradius 22.00871177859894
lwrist 3.43679005854086
lhand -27.72093420867182 26.96810725546237
lfingers 7.125020000000051
lthumb -1.1356827724605596 56.94311168858255
rfemur -12.793087339413816 1.4903731153248627 21.757230276367178
rtibia 58.42330142719561
rfoot 4.895105633390065 -3.0674300132856214
rtoes 9.394521038319679
lfemur -12.548037831287528 -4.074590094944002 -20.161573068159704
ltibia 20.330649068119513
lfoot -10.728324522622428 1.9682100092023704
ltoes -0.1391884945083106
232
root 0 0 0 -5.227038997867958 -4.167820076621492 2.264091350236338
lowerback 13.55674088938311 1.1334083900417062 -2.533491859374954
upperback 2.4570094634270956 1.2114593358080985 0.14074543640761528
thorax -4.883443274942164 0.6536941827692127 1.4511814557287974
lowerneck -15.372597305419667 -3.402373482927626 -2.4936005175817475
upperneck 16.96914101206655 -4.413148194661722 1.942595330379262
head 7.830521544539561 -2.081309714402617 0.523114691578345
rclavicle -2.7382113379574996E-15 2.804720915142388E-15
rhumerus -30.71036693411357 -19.99044663977008 -81.62798043870364
rradius 25.43679778434477
rwrist 12.648515136652684
rhand -20.016251057637067 27.190883166169826
rfingers 7.1250199999999975
rthumb 6.3474112917903565 -2.8766690078596824
lclavicle -6.647339012702653E-15 2.333030649945234E-15
lhumerus -30.92811444657822 1.569573495756037 83.69430749322107
lradius 23.68901213017365
lwrist 4.548701034808741
lhand -28.145833654896567 26.82109879675984
lfingers 7.1250200000000445
lthumb -1.544942762588418 56.84691291948978
rfemur -20.997827809551875 -0.11648933311851106 17.609667339377275
rtibia 61.21282901082234
rfoot 6.577049714093212 -4.3802955301390725
rtoes 9.566333948101176
lfemur -0.27683964239153447 -4.5279573502752175 -25.670546959925645
ltibia 18.45767348520664
lfoot -14.372913855940933 0.7850379833316024
ltoes -0.508244488473192
233
root 0 0 0 -3.7743694148493323 -2.758708992435093 3.6897582393032136
lowerback 13.121613536933344 0.31946522716948117 -4.040145117830425
upperback 2.256380349013878 -0.08694205527435162 0.1644267045888943
thorax -4.848433656630231 0.06103533180512666 2.485975507889129
lowerneck -14.675686956502469 -2.908722671752249 -2.7399183420026745
upperneck 16.281271755457766 -3.6503812819054247 2.070479762417808
head 7.444816033939577 -1.7618330747283437 0.7133203425859418
rclavicle -8.585121014974252E-16 3.668151062806657E-15
rhumerus -30.940159858432352 -21.287188427146486 -81.08767959188246
rradius 24.90920669490216
rwrist 12.462055669151471
rhand -19.924046297783594 26.571502523462243
rfingers 7.125020000000001
rthumb 6.435589474649513 -3.5027355381613745
lclavicle -7.69120145635891E-16 3.6881933677983396E-15
lhumerus -28.488980113562896 -2.249398491854687 83.68781844836334
lradius 28.331401299152112
lwrist 7.0555977024982734
lhand -28.35515356451128 26.12661908309761
lfingers 7.125020000000033
lthumb -1.745674996733218 56.137756840160776
rfemur -24.191866088896003 -0.5785953755848046 15.651417258928317
rtibia 58.97316097891395
rfoot 5.722886372150517 -5.141811257260965
rtoes 8.522764297637966
lfemur 5.05544572596092 -5.028595522217231 -27.838503501855136
ltibia 18.22126198228321
lfoot -16.56618252596094 0.7173003789708692
ltoes 0.20427854566348813
